<?xml version="1.0" encoding="UTF-8"?>
<svg xmlns="http://www.w3.org/2000/svg" xmlns:xlink="http://www.w3.org/1999/xlink" width="1920px" height="1080px" viewBox="0 0 1920 1080" version="1.1">
<defs>
<linearGradient id="linear0" gradientUnits="userSpaceOnUse" x1="0" y1="1" x2="0" y2="0" gradientTransform="matrix(6582.800781,0,0,1064.589844,0,15.410156)">
<stop offset="0" style="stop-color:rgb(95.294118%,41.568627%,24.313725%);stop-opacity:1;"/>
<stop offset="1" style="stop-color:rgb(100%,70.196078%,4.313725%);stop-opacity:1;"/>
</linearGradient>
</defs>
<g id="surface1">
<path style=" stroke:none;fill-rule:nonzero;fill:url(#linear0);" d="M 0 432 L 45.734375 432 C 91.464844 432 182.667969 432 274.667969 378 C 365.734375 324 457.332031 216 548 270 C 640 324 732 540 822.667969 612.074219 C 914.265625 683.265625 1005.332031 612.734375 1097.332031 575.925781 C 1188.535156 540 1280 540 1372 486 C 1462.800781 432 1554.667969 324 1645.332031 378 C 1737.199219 432 1828 648 1920 648 C 2011.464844 648 2102.667969 432 2194.667969 305.925781 C 2285.734375 180.734375 2377.332031 143.265625 2468 270 C 2560 396.734375 2652 683.265625 2742.667969 756 C 2834.265625 828.734375 2925.332031 683.265625 3017.332031 612.074219 C 3108.535156 540 3200 540 3292 486 C 3382.800781 432 3474.667969 324 3565.332031 234.074219 C 3657.199219 143.265625 3748 72.734375 3840 35.925781 C 3931.464844 0 4022.667969 0 4114.667969 126.074219 C 4205.734375 251.265625 4297.332031 504.734375 4388 666.074219 C 4480 828.734375 4572 899.265625 4662.667969 899.925781 C 4754.265625 899.265625 4845.332031 828.734375 4937.332031 774.074219 C 5028.535156 720.734375 5120 683.265625 5212 612.074219 C 5302.800781 540 5394.667969 432 5485.332031 413.925781 C 5577.199219 396.734375 5668 467.265625 5760 540 C 5851.464844 612.734375 5942.667969 683.265625 6034.667969 594 C 6125.734375 504.734375 6217.332031 251.265625 6308 270 C 6400 288.734375 6492 575.265625 6537.332031 720.074219 L 6582.800781 864 L 6582.800781 1080 L 6537.199219 1080 C 6491.464844 1080 6400 1080 6308 1080 C 6217.199219 1080 6125.332031 1080 6034.667969 1080 C 5942.800781 1080 5852 1080 5760 1080 C 5668.535156 1080 5577.332031 1080 5485.332031 1080 C 5394.265625 1080 5302.667969 1080 5212 1080 C 5120 1080 5028 1080 4937.332031 1080 C 4845.734375 1080 4754.667969 1080 4662.667969 1080 C 4571.464844 1080 4480 1080 4388 1080 C 4297.199219 1080 4205.332031 1080 4114.667969 1080 C 4022.800781 1080 3932 1080 3840 1080 C 3748.535156 1080 3657.332031 1080 3565.332031 1080 C 3474.265625 1080 3382.667969 1080 3292 1080 C 3200 1080 3108 1080 3017.332031 1080 C 2925.734375 1080 2834.667969 1080 2742.667969 1080 C 2651.464844 1080 2560 1080 2468 1080 C 2377.199219 1080 2285.332031 1080 2194.667969 1080 C 2102.800781 1080 2012 1080 1920 1080 C 1828.535156 1080 1737.332031 1080 1645.332031 1080 C 1554.265625 1080 1462.667969 1080 1372 1080 C 1280 1080 1188 1080 1097.332031 1080 C 1005.734375 1080 914.667969 1080 822.667969 1080 C 731.464844 1080 640 1080 548 1080 C 457.199219 1080 365.332031 1080 274.667969 1080 C 182.800781 1080 92 1080 45.332031 1080 L 0 1080 Z M 0 432 "/>
</g>
</svg>
