<?xml version="1.0" encoding="UTF-8"?>
<svg xmlns="http://www.w3.org/2000/svg" xmlns:xlink="http://www.w3.org/1999/xlink" width="1920px" height="1080px" viewBox="0 0 1920 1080" version="1.1">
<defs>
<linearGradient id="linear0" gradientUnits="userSpaceOnUse" x1="0" y1="1" x2="0" y2="0" gradientTransform="matrix(15360,0,0,1030.710938,0,49.289062)">
<stop offset="0" style="stop-color:rgb(97.647059%,17.254902%,52.156863%);stop-opacity:1;"/>
<stop offset="1" style="stop-color:rgb(83.921569%,63.921569%,98.431373%);stop-opacity:1;"/>
</linearGradient>
</defs>
<g id="surface1">
<path style=" stroke:none;fill-rule:nonzero;fill:url(#linear0);" d="M 0 972 L 106.667969 972 C 213.332031 972 426.667969 972 640 845.925781 C 853.332031 720.734375 1066.667969 467.265625 1280 324 C 1493.332031 180.734375 1706.667969 143.265625 1920 270 C 2133.332031 396.734375 2346.667969 683.265625 2560 702 C 2773.332031 720.734375 2986.667969 467.265625 3200 342.074219 C 3413.332031 216 3626.667969 216 3840 180.074219 C 4053.332031 143.265625 4266.667969 72.734375 4480 54 C 4693.332031 35.265625 4906.667969 72.734375 5120 89.925781 C 5333.332031 108 5546.667969 108 5760 180.074219 C 5973.332031 251.265625 6186.667969 396.734375 6400 504.074219 C 6613.332031 612.734375 6826.667969 683.265625 7040 629.925781 C 7253.332031 575.265625 7466.667969 396.734375 7680 305.925781 C 7893.332031 216 8106.667969 216 8320 324 C 8533.332031 432 8746.667969 648 8960 666.074219 C 9173.332031 683.265625 9386.667969 504.734375 9600 413.925781 C 9813.332031 324 10026.667969 324 10240 359.925781 C 10453.332031 396.734375 10666.667969 467.265625 10880 486 C 11093.332031 504.734375 11306.667969 467.265625 11520 486 C 11733.332031 504.734375 11946.667969 575.265625 12160 504.074219 C 12373.332031 432 12586.667969 216 12800 143.925781 C 13013.332031 72.734375 13226.667969 143.265625 13440 305.925781 C 13653.332031 467.265625 13866.667969 720.734375 14080 774.074219 C 14293.332031 828.734375 14506.667969 683.265625 14720 666.074219 C 14933.332031 648 15146.667969 756 15253.332031 810 L 15360 864 L 15360 1080 L 15253.332031 1080 C 15146.667969 1080 14933.332031 1080 14720 1080 C 14506.667969 1080 14293.332031 1080 14080 1080 C 13866.667969 1080 13653.332031 1080 13440 1080 C 13226.667969 1080 13013.332031 1080 12800 1080 C 12586.667969 1080 12373.332031 1080 12160 1080 C 11946.667969 1080 11733.332031 1080 11520 1080 C 11306.667969 1080 11093.332031 1080 10880 1080 C 10666.667969 1080 10453.332031 1080 10240 1080 C 10026.667969 1080 9813.332031 1080 9600 1080 C 9386.667969 1080 9173.332031 1080 8960 1080 C 8746.667969 1080 8533.332031 1080 8320 1080 C 8106.667969 1080 7893.332031 1080 7680 1080 C 7466.667969 1080 7253.332031 1080 7040 1080 C 6826.667969 1080 6613.332031 1080 6400 1080 C 6186.667969 1080 5973.332031 1080 5760 1080 C 5546.667969 1080 5333.332031 1080 5120 1080 C 4906.667969 1080 4693.332031 1080 4480 1080 C 4266.667969 1080 4053.332031 1080 3840 1080 C 3626.667969 1080 3413.332031 1080 3200 1080 C 2986.667969 1080 2773.332031 1080 2560 1080 C 2346.667969 1080 2133.332031 1080 1920 1080 C 1706.667969 1080 1493.332031 1080 1280 1080 C 1066.667969 1080 853.332031 1080 640 1080 C 426.667969 1080 213.332031 1080 106.667969 1080 L 0 1080 Z M 0 972 "/>
</g>
</svg>
